<svg width="200" height="200" viewBox="0 0 200 200" fill="none" xmlns="http://www.w3.org/2000/svg">
<g clip-path="url(#clip0_81_119)">
<rect width="200" height="200" rx="100" fill="white"/>
<path d="M146.789 -13H53.2109C16.6448 -13 -13 16.6448 -13 53.2109V146.789C-13 183.355 16.6448 213 53.2109 213H146.789C183.355 213 213 183.355 213 146.789V53.2109C213 16.6448 183.355 -13 146.789 -13ZM148.352 64.789C152.139 68.5763 152.139 74.7118 148.352 78.4991L91.6398 135.211C87.8525 138.998 81.717 138.998 77.9297 135.211L51.6484 108.93C47.8611 105.142 47.8611 99.0068 51.6484 95.2196C55.4356 91.4323 61.5712 91.4323 65.3584 95.2196L84.7847 114.646L134.642 64.789C138.429 61.0018 144.564 61.0018 148.352 64.789Z" fill="#007BFF"/>
</g>
<defs>
<clipPath id="clip0_81_119">
<rect width="200" height="200" rx="100" fill="white"/>
</clipPath>
</defs>
</svg>
