<svg width="200" height="200" viewBox="0 0 200 200" fill="none" xmlns="http://www.w3.org/2000/svg">
<rect width="200" height="200" rx="100" fill="#007BFF"/>
<path d="M77.9693 77.102C65.4908 77.102 55.092 87.5102 55.092 100C55.092 112.49 65.4908 122.898 77.9693 122.898H89.0613C92.5276 122.898 94.6074 124.98 94.6074 128.449C94.6074 131.918 92.5276 134 89.0613 134H77.9693C58.5583 134 44 119.429 44 100C44 80.5714 58.5583 66 77.9693 66H89.0613C92.5276 66 94.6074 68.0816 94.6074 71.551C94.6074 75.0204 92.5276 77.102 89.0613 77.102H77.9693ZM106.393 71.551C106.393 68.0816 108.472 66 111.939 66H123.031C142.442 66 157 80.5714 157 100C157 119.429 142.442 134 123.031 134H111.939C108.472 134 106.393 131.918 106.393 128.449C106.393 124.98 108.472 122.898 111.939 122.898H123.031C135.509 122.898 145.908 112.49 145.908 100C145.908 87.5102 135.509 77.102 123.031 77.102H111.939C108.472 77.102 106.393 75.0204 106.393 71.551ZM72.4233 100C72.4233 96.5306 74.5031 94.449 77.9693 94.449H123.724C127.19 94.449 129.27 96.5306 129.27 100C129.27 103.469 127.19 105.551 123.724 105.551H77.9693C74.5031 105.551 72.4233 103.469 72.4233 100Z" fill="white"/>
</svg>
