<svg width="132" height="26" viewBox="0 0 132 26" fill="none" xmlns="http://www.w3.org/2000/svg">
<path d="M14.3936 8.46191H8.66602V6.7041C8.66602 5.88379 8.59277 5.36133 8.44629 5.13672C8.2998 4.91211 8.05566 4.7998 7.71387 4.7998C7.34277 4.7998 7.05957 4.95117 6.86426 5.25391C6.67871 5.55664 6.58594 6.01562 6.58594 6.63086C6.58594 7.42188 6.69336 8.01758 6.9082 8.41797C7.11328 8.81836 7.69434 9.30176 8.65137 9.86816C11.3955 11.499 13.124 12.8369 13.8369 13.8818C14.5498 14.9268 14.9062 16.6113 14.9062 18.9355C14.9062 20.625 14.7061 21.8701 14.3057 22.6709C13.915 23.4717 13.1533 24.1455 12.0205 24.6924C10.8877 25.2295 9.56934 25.498 8.06543 25.498C6.41504 25.498 5.00391 25.1855 3.83203 24.5605C2.66992 23.9355 1.9082 23.1396 1.54688 22.1729C1.18555 21.2061 1.00488 19.834 1.00488 18.0566V16.5039H6.73242V19.3896C6.73242 20.2783 6.81055 20.8496 6.9668 21.1035C7.13281 21.3574 7.4209 21.4844 7.83105 21.4844C8.24121 21.4844 8.54395 21.3232 8.73926 21.001C8.94434 20.6787 9.04688 20.2002 9.04688 19.5654C9.04688 18.1689 8.85645 17.2559 8.47559 16.8262C8.08496 16.3965 7.12305 15.6787 5.58984 14.6729C4.05664 13.6572 3.04102 12.9199 2.54297 12.4609C2.04492 12.002 1.62988 11.3672 1.29785 10.5566C0.975586 9.74609 0.814453 8.71094 0.814453 7.45117C0.814453 5.63477 1.04395 4.30664 1.50293 3.4668C1.97168 2.62695 2.72363 1.97266 3.75879 1.50391C4.79395 1.02539 6.04395 0.786133 7.50879 0.786133C9.11035 0.786133 10.4727 1.04492 11.5957 1.5625C12.7285 2.08008 13.4756 2.73438 13.8369 3.52539C14.208 4.30664 14.3936 5.63965 14.3936 7.52441V8.46191ZM29.2764 1.28418V6.03027H25.6143V25H19.4473V6.03027H15.7998V1.28418H29.2764ZM40.1309 1.28418L43.6611 25H37.3477L37.04 20.7373H34.8281L34.4619 25H28.0752L31.21 1.28418H40.1309ZM36.8643 16.5332C36.5518 13.8477 36.2393 10.5322 35.9268 6.58691C35.3018 11.1182 34.9111 14.4336 34.7549 16.5332H36.8643ZM59.1152 11.626H52.9482V7.49512C52.9482 6.29395 52.8799 5.54688 52.7432 5.25391C52.6162 4.95117 52.3281 4.7998 51.8789 4.7998C51.3711 4.7998 51.0488 4.98047 50.9121 5.3418C50.7754 5.70313 50.707 6.48438 50.707 7.68555V18.7012C50.707 19.8535 50.7754 20.6055 50.9121 20.957C51.0488 21.3086 51.3564 21.4844 51.835 21.4844C52.2939 21.4844 52.5918 21.3086 52.7285 20.957C52.875 20.6055 52.9482 19.7803 52.9482 18.4814V15.5078H59.1152V16.4307C59.1152 18.8818 58.9395 20.6201 58.5879 21.6455C58.2461 22.6709 57.4795 23.5693 56.2881 24.3408C55.1064 25.1123 53.6465 25.498 51.9082 25.498C50.1016 25.498 48.6123 25.1709 47.4404 24.5166C46.2686 23.8623 45.4922 22.959 45.1113 21.8066C44.7305 20.6445 44.54 18.9014 44.54 16.5771V9.64844C44.54 7.93945 44.5986 6.66016 44.7158 5.81055C44.833 4.95117 45.1797 4.12598 45.7559 3.33496C46.3418 2.54395 47.1475 1.92383 48.1729 1.47461C49.208 1.01563 50.3945 0.786133 51.7324 0.786133C53.5488 0.786133 55.0479 1.1377 56.2295 1.84082C57.4111 2.54395 58.1875 3.42285 58.5586 4.47754C58.9297 5.52246 59.1152 7.15332 59.1152 9.37012V11.626ZM76.0195 1.28418L72.4893 11.9922L76.3564 25H69.9844L67.4941 14.834V25H61.3271V1.28418H67.4941V10.498L70.2334 1.28418H76.0195ZM83.6074 1.28418V20.2539H87.3574V25H77.4404V1.28418H83.6074ZM88.8662 1.28418H99.1494V6.03027H95.0332V10.5273H98.8857V15.0391H95.0332V20.2539H99.5596V25H88.8662V1.28418ZM115.116 1.28418V25H109.711L106.503 14.2188V25H101.347V1.28418H106.503L109.96 11.9629V1.28418H115.116ZM130.673 8.46191H124.945V6.7041C124.945 5.88379 124.872 5.36133 124.726 5.13672C124.579 4.91211 124.335 4.7998 123.993 4.7998C123.622 4.7998 123.339 4.95117 123.144 5.25391C122.958 5.55664 122.865 6.01562 122.865 6.63086C122.865 7.42188 122.973 8.01758 123.188 8.41797C123.393 8.81836 123.974 9.30176 124.931 9.86816C127.675 11.499 129.403 12.8369 130.116 13.8818C130.829 14.9268 131.186 16.6113 131.186 18.9355C131.186 20.625 130.985 21.8701 130.585 22.6709C130.194 23.4717 129.433 24.1455 128.3 24.6924C127.167 25.2295 125.849 25.498 124.345 25.498C122.694 25.498 121.283 25.1855 120.111 24.5605C118.949 23.9355 118.188 23.1396 117.826 22.1729C117.465 21.2061 117.284 19.834 117.284 18.0566V16.5039H123.012V19.3896C123.012 20.2783 123.09 20.8496 123.246 21.1035C123.412 21.3574 123.7 21.4844 124.11 21.4844C124.521 21.4844 124.823 21.3232 125.019 21.001C125.224 20.6787 125.326 20.2002 125.326 19.5654C125.326 18.1689 125.136 17.2559 124.755 16.8262C124.364 16.3965 123.402 15.6787 121.869 14.6729C120.336 13.6572 119.32 12.9199 118.822 12.4609C118.324 12.002 117.909 11.3672 117.577 10.5566C117.255 9.74609 117.094 8.71094 117.094 7.45117C117.094 5.63477 117.323 4.30664 117.782 3.4668C118.251 2.62695 119.003 1.97266 120.038 1.50391C121.073 1.02539 122.323 0.786133 123.788 0.786133C125.39 0.786133 126.752 1.04492 127.875 1.5625C129.008 2.08008 129.755 2.73438 130.116 3.52539C130.487 4.30664 130.673 5.63965 130.673 7.52441V8.46191Z" fill="#3A3A3A"/>
</svg>
