<svg width="200" height="200" viewBox="0 0 200 200" fill="none" xmlns="http://www.w3.org/2000/svg">
<rect width="200" height="200" rx="100" fill="#007BFF"/>
<g clip-path="url(#clip0_81_110)">
<path d="M102.362 97.7435C102.344 97.7243 102.339 97.6987 102.32 97.6799L83.5942 78.9538V67.1874C83.5942 66.3157 83.2481 65.4827 82.633 64.8674L62.9455 44.9613C62.0099 44.026 60.5967 43.7407 59.3693 44.2502C58.1422 44.7564 57.3441 45.9549 57.3441 47.2814V57.1251H47.2816C45.9554 57.1249 44.7568 57.9227 44.2506 59.1501C43.7412 60.3773 44.0231 61.7874 44.962 62.7262L64.8683 82.6323C65.4836 83.2476 66.3166 83.5937 67.1881 83.5937H78.9545L97.6803 102.32C97.6992 102.338 97.7247 102.344 97.744 102.362C99.0215 103.581 100.962 103.597 102.257 102.362C103.62 101.061 103.589 99.0287 102.362 97.7435Z" fill="white"/>
<path d="M100 44.0004C91.6042 44.0004 83.666 46.1365 76.5177 49.4731L86.5832 59.5386C90.8077 58.1338 95.3103 57.3441 100 57.3441C123.52 57.3439 142.656 76.4801 142.656 99.9999C142.656 123.52 123.52 142.656 100 142.656C76.4801 142.656 57.344 123.52 57.344 99.9999C57.344 95.3099 58.1339 90.8074 59.5385 86.5829L49.473 76.5173C46.1368 83.6659 44.0005 91.6041 44.0005 99.9999C44.0005 130.758 69.2418 156 100 156C130.758 156 156 130.758 156 99.9999C156 69.2417 130.759 44.0004 100 44.0004Z" fill="white"/>
<path d="M100 70.469C96.5319 70.469 93.2507 71.1799 90.1565 72.2831V76.2368L97.7421 83.8224C98.4871 83.7182 99.2269 83.594 100 83.594C109.046 83.594 116.406 90.9543 116.406 100C116.406 109.046 109.046 116.406 100 116.406C90.9542 116.406 83.594 109.046 83.594 100C83.594 99.2267 83.7182 98.4869 83.8223 97.7421L76.237 90.1563H72.2833C71.1801 93.2505 70.4692 96.5317 70.4692 100C70.4692 116.284 83.716 129.531 100 129.531C116.284 129.531 129.531 116.284 129.531 100C129.531 83.7156 116.285 70.469 100 70.469Z" fill="white"/>
</g>
<defs>
<clipPath id="clip0_81_110">
<rect width="112" height="112" fill="white" transform="translate(44 44)"/>
</clipPath>
</defs>
</svg>
