<svg width="200" height="200" viewBox="0 0 200 200" fill="none" xmlns="http://www.w3.org/2000/svg">
<rect width="200" height="200" rx="100" fill="#007BFF"/>
<path fill-rule="evenodd" clip-rule="evenodd" d="M129.88 101.978C124.408 101.978 119.272 103.08 114.952 104.948C130.072 109.309 140.776 119.755 141.064 131.973C148.936 130.967 157.432 127.996 157.432 119.898C157.432 110.171 144.808 101.978 129.88 101.978Z" fill="white"/>
<path fill-rule="evenodd" clip-rule="evenodd" d="M129.736 95.0776H129.832C140.056 95.0776 148.408 86.7403 148.408 76.582C148.408 66.3757 140.056 58.0382 129.832 58.0382C127.816 58.0382 125.896 58.3736 124.072 58.9486C127.384 63.8361 129.304 69.7299 129.304 76.1028C129.352 82.5715 127.336 88.8007 123.544 93.9756C125.512 94.6943 127.576 95.0776 129.736 95.0776Z" fill="white"/>
<path fill-rule="evenodd" clip-rule="evenodd" d="M82.5996 104.901C78.2796 103.08 73.1436 101.978 67.7196 101.978C52.7916 101.978 40.1676 110.171 40.1676 119.898C40.1676 127.996 48.6156 130.919 56.4876 131.973C56.7276 119.755 67.4316 109.309 82.5996 104.901Z" fill="white"/>
<path fill-rule="evenodd" clip-rule="evenodd" d="M67.7196 95.0776H67.8637C70.0237 95.0776 72.0877 94.6943 74.0557 93.9756C70.4077 88.9924 68.2477 82.8111 68.2477 76.1028C68.2477 69.7299 70.1676 63.8361 73.4796 58.9486C71.6556 58.3736 69.7356 58.0382 67.7196 58.0382C57.4956 58.0382 49.1917 66.3757 49.1917 76.582C49.1917 86.7403 57.4956 95.0776 67.7196 95.0776Z" fill="white"/>
<path fill-rule="evenodd" clip-rule="evenodd" d="M98.7736 109.822C79.7609 109.822 63.6953 120.152 63.6953 132.381C63.6953 148.193 90.0952 148.193 98.7736 148.193C113.836 148.193 133.862 146.564 133.862 132.481C133.862 120.196 117.791 109.822 98.7736 109.822Z" fill="white"/>
<path fill-rule="evenodd" clip-rule="evenodd" d="M98.7784 99.4194H98.9368C105.153 99.4003 110.99 96.9613 115.367 92.5578C119.75 88.1543 122.15 82.3132 122.126 76.1176C122.126 63.2616 111.657 52.8062 98.7784 52.8062C85.9049 52.8062 75.4361 63.2616 75.4361 76.1176C75.4361 88.9641 85.9049 99.4194 98.7784 99.4194Z" fill="white"/>
</svg>
